# xmcd
#
# Track frame offsets:
#	150
#	19130
#	37242
#	53697
#	70410
#	86007
#	107975
#	125080
#	140665
#	158840
#	180667
#	197635
#
# Disc length: 3102 seconds
#
# Revision: 0
# Processed by: cddbd v1.4PL0 Copyright (c) Steve Scherf et al.
# Submitted via: audiograbber 1.80
#
DISCID=b10c1c0c
DTITLE=ANKIE BAGGER - WHERE WERE YOU LAST NIGHT
DYEAR=1900
DGENRE=
TTITLE0=WHERE WERE YOU LAST NIGHT
TTITLE1=I WAS MADE FOR LOVING YOU
TTITLE2=THERE´S NO REASON
TTITLE3=DANCE THE NIGHT AWAY
TTITLE4=PEOPLE SAYIT´S IN THE AIR
TTITLE5=DON´T YOU KNOW
TTITLE6=IN MY HOUS
TTITLE7=LOVE REALLY HURTS WITHOUT YOU
TTITLE8=IT´S YOU
TTITLE9=RELAX
TTITLE10=SANDY, SANDY
TTITLE11=REMIX
EXTD=
EXTT0=
EXTT1=
EXTT2=
EXTT3=
EXTT4=
EXTT5=
EXTT6=
EXTT7=
EXTT8=
EXTT9=
EXTT10=
EXTT11=
PLAYORDER=
